<mxfile host="app.diagrams.net" agent="Mozilla/5.0 (Windows NT 10.0; Win64; x64) AppleWebKit/537.36 (KHTML, like Gecko) Chrome/131.0.0.0 Safari/537.36" version="26.0.6">
  <diagram name="Page-1" id="03018318-947c-dd8e-b7a3-06fadd420f32">
    <mxGraphModel dx="2607" dy="1342" grid="0" gridSize="10" guides="1" tooltips="1" connect="1" arrows="1" fold="1" page="1" pageScale="1" pageWidth="3000" pageHeight="2000" background="none" math="0" shadow="0">
      <root>
        <mxCell id="0" />
        <mxCell id="1" parent="0" />
        <mxCell id="yDf6Gy69k3FiIV9ASkcH-1" value="" style="rounded=0;whiteSpace=wrap;html=1;" vertex="1" parent="1">
          <mxGeometry x="37" y="48" width="226" height="448" as="geometry" />
        </mxCell>
        <mxCell id="yDf6Gy69k3FiIV9ASkcH-2" value="&lt;div&gt;Splash Page&lt;/div&gt;" style="text;spacingTop=-5;whiteSpace=wrap;html=1;align=left;fontSize=12;fontFamily=Helvetica;fillColor=none;strokeColor=none;" vertex="1" parent="1">
          <mxGeometry x="112.5" y="16" width="75" height="20" as="geometry" />
        </mxCell>
        <mxCell id="yDf6Gy69k3FiIV9ASkcH-3" value="" style="rounded=0;whiteSpace=wrap;html=1;" vertex="1" parent="1">
          <mxGeometry x="596" y="46" width="226" height="449" as="geometry" />
        </mxCell>
        <mxCell id="yDf6Gy69k3FiIV9ASkcH-4" value="&lt;div&gt;Login/Register&amp;nbsp; Page&lt;/div&gt;" style="text;spacingTop=-5;whiteSpace=wrap;html=1;align=left;fontSize=12;fontFamily=Helvetica;fillColor=none;strokeColor=none;" vertex="1" parent="1">
          <mxGeometry x="647.75" y="14" width="122.5" height="20" as="geometry" />
        </mxCell>
        <mxCell id="yDf6Gy69k3FiIV9ASkcH-5" value="" style="verticalLabelPosition=bottom;shadow=0;dashed=0;align=center;html=1;verticalAlign=top;strokeWidth=1;shape=mxgraph.mockup.graphics.simpleIcon;strokeColor=#999999;" vertex="1" parent="1">
          <mxGeometry x="106.5" y="205" width="87" height="90" as="geometry" />
        </mxCell>
        <mxCell id="yDf6Gy69k3FiIV9ASkcH-6" value="&lt;font style=&quot;font-size: 11px;&quot;&gt;App Logo&lt;/font&gt;" style="strokeWidth=1;shadow=0;dashed=0;align=center;html=1;shape=mxgraph.mockup.text.textBox;fontColor=#666666;align=left;fontSize=17;spacingLeft=4;spacingTop=-3;whiteSpace=wrap;strokeColor=#666666;mainText=" vertex="1" parent="1">
          <mxGeometry x="121" y="242.5" width="58" height="15" as="geometry" />
        </mxCell>
        <mxCell id="yDf6Gy69k3FiIV9ASkcH-7" value="Logo For if someone open the app unintentianaly so they can know that is the food ordering app.and if they want they can go to the app and if they dont want they can go back and exit from the app." style="text;spacingTop=-5;whiteSpace=wrap;html=1;align=left;fontSize=12;fontFamily=Helvetica;fillColor=none;strokeColor=none;" vertex="1" parent="1">
          <mxGeometry x="281" y="94" width="250" height="76" as="geometry" />
        </mxCell>
        <mxCell id="yDf6Gy69k3FiIV9ASkcH-8" value="" style="curved=1;endArrow=classic;html=1;rounded=0;entryX=1;entryY=0.5;entryDx=0;entryDy=0;" edge="1" parent="1" target="yDf6Gy69k3FiIV9ASkcH-1">
          <mxGeometry width="50" height="50" relative="1" as="geometry">
            <mxPoint x="407" y="164" as="sourcePoint" />
            <mxPoint x="453" y="159" as="targetPoint" />
            <Array as="points">
              <mxPoint x="416" y="170" />
              <mxPoint x="403" y="181" />
              <mxPoint x="403" y="159" />
              <mxPoint x="391" y="270" />
            </Array>
          </mxGeometry>
        </mxCell>
        <mxCell id="yDf6Gy69k3FiIV9ASkcH-9" value="" style="verticalLabelPosition=bottom;shadow=0;dashed=0;align=center;html=1;verticalAlign=top;strokeWidth=1;shape=mxgraph.mockup.graphics.simpleIcon;strokeColor=#999999;" vertex="1" parent="1">
          <mxGeometry x="665.5" y="74" width="87" height="90" as="geometry" />
        </mxCell>
        <mxCell id="yDf6Gy69k3FiIV9ASkcH-10" value="&lt;font style=&quot;font-size: 12px;&quot;&gt;User Name&lt;/font&gt;" style="strokeWidth=1;shadow=0;dashed=0;align=center;html=1;shape=mxgraph.mockup.text.textBox;fontColor=#666666;align=left;fontSize=17;spacingLeft=4;spacingTop=-3;whiteSpace=wrap;strokeColor=#666666;mainText=" vertex="1" parent="1">
          <mxGeometry x="631" y="223" width="150" height="30" as="geometry" />
        </mxCell>
        <mxCell id="yDf6Gy69k3FiIV9ASkcH-11" value="&lt;font style=&quot;font-size: 12px;&quot;&gt;Password&lt;/font&gt;" style="strokeWidth=1;shadow=0;dashed=0;align=center;html=1;shape=mxgraph.mockup.text.textBox;fontColor=#666666;align=left;fontSize=17;spacingLeft=4;spacingTop=-3;whiteSpace=wrap;strokeColor=#666666;mainText=" vertex="1" parent="1">
          <mxGeometry x="631" y="264" width="150" height="30" as="geometry" />
        </mxCell>
        <mxCell id="yDf6Gy69k3FiIV9ASkcH-12" value="Login" style="strokeWidth=1;shadow=0;dashed=0;align=center;html=1;shape=mxgraph.mockup.buttons.button;strokeColor=#666666;fontColor=#ffffff;mainText=;buttonStyle=round;fontSize=17;fontStyle=1;fillColor=#FF1616;whiteSpace=wrap;" vertex="1" parent="1">
          <mxGeometry x="662.25" y="310" width="93.5" height="23" as="geometry" />
        </mxCell>
        <mxCell id="yDf6Gy69k3FiIV9ASkcH-13" value="&lt;div&gt;Register Pane&lt;/div&gt;" style="text;spacingTop=-5;whiteSpace=wrap;html=1;align=left;fontSize=12;fontFamily=Helvetica;fillColor=none;strokeColor=none;" vertex="1" parent="1">
          <mxGeometry x="1005.25" y="126" width="85.5" height="20" as="geometry" />
        </mxCell>
        <mxCell id="yDf6Gy69k3FiIV9ASkcH-14" value="" style="rounded=0;whiteSpace=wrap;html=1;" vertex="1" parent="1">
          <mxGeometry x="935" y="158" width="226" height="294" as="geometry" />
        </mxCell>
        <mxCell id="yDf6Gy69k3FiIV9ASkcH-15" value="Login" style="text;strokeColor=#008CFF;align=center;verticalAlign=middle;spacingLeft=10;spacingRight=10;overflow=hidden;points=[[0,0.5],[1,0.5]];portConstraint=eastwest;rotatable=0;whiteSpace=wrap;html=1;fillColor=#008CFF;fontColor=#ffffff;fontSize=17;" vertex="1" parent="1">
          <mxGeometry x="615.5" y="180" width="187" height="25" as="geometry" />
        </mxCell>
        <mxCell id="yDf6Gy69k3FiIV9ASkcH-16" value="Register" style="text;strokeColor=#008CFF;align=center;verticalAlign=middle;spacingLeft=10;spacingRight=10;overflow=hidden;points=[[0,0.5],[1,0.5]];portConstraint=eastwest;rotatable=0;whiteSpace=wrap;html=1;fillColor=#008CFF;fontColor=#ffffff;fontSize=17;" vertex="1" parent="1">
          <mxGeometry x="954.5" y="180" width="187" height="25" as="geometry" />
        </mxCell>
        <mxCell id="yDf6Gy69k3FiIV9ASkcH-17" value="&lt;font style=&quot;font-size: 12px;&quot;&gt;First Name&lt;/font&gt;" style="strokeWidth=1;shadow=0;dashed=0;align=center;html=1;shape=mxgraph.mockup.text.textBox;fontColor=#666666;align=left;fontSize=17;spacingLeft=4;spacingTop=-3;whiteSpace=wrap;strokeColor=#666666;mainText=" vertex="1" parent="1">
          <mxGeometry x="973" y="216.5" width="150" height="30" as="geometry" />
        </mxCell>
        <mxCell id="yDf6Gy69k3FiIV9ASkcH-18" value="&lt;font style=&quot;font-size: 12px;&quot;&gt;Last Name&lt;/font&gt;" style="strokeWidth=1;shadow=0;dashed=0;align=center;html=1;shape=mxgraph.mockup.text.textBox;fontColor=#666666;align=left;fontSize=17;spacingLeft=4;spacingTop=-3;whiteSpace=wrap;strokeColor=#666666;mainText=" vertex="1" parent="1">
          <mxGeometry x="973" y="257.5" width="150" height="30" as="geometry" />
        </mxCell>
        <mxCell id="yDf6Gy69k3FiIV9ASkcH-19" value="Register" style="strokeWidth=1;shadow=0;dashed=0;align=center;html=1;shape=mxgraph.mockup.buttons.button;strokeColor=#666666;fontColor=#ffffff;mainText=;buttonStyle=round;fontSize=17;fontStyle=1;fillColor=#FF1616;whiteSpace=wrap;" vertex="1" parent="1">
          <mxGeometry x="1001.75" y="414" width="92.5" height="25" as="geometry" />
        </mxCell>
        <mxCell id="yDf6Gy69k3FiIV9ASkcH-20" value="&lt;font style=&quot;font-size: 12px;&quot;&gt;E-Mail&lt;/font&gt;" style="strokeWidth=1;shadow=0;dashed=0;align=center;html=1;shape=mxgraph.mockup.text.textBox;fontColor=#666666;align=left;fontSize=17;spacingLeft=4;spacingTop=-3;whiteSpace=wrap;strokeColor=#666666;mainText=" vertex="1" parent="1">
          <mxGeometry x="973" y="296" width="150" height="30" as="geometry" />
        </mxCell>
        <mxCell id="yDf6Gy69k3FiIV9ASkcH-21" value="&lt;font style=&quot;font-size: 12px;&quot;&gt;Username&lt;/font&gt;" style="strokeWidth=1;shadow=0;dashed=0;align=center;html=1;shape=mxgraph.mockup.text.textBox;fontColor=#666666;align=left;fontSize=17;spacingLeft=4;spacingTop=-3;whiteSpace=wrap;strokeColor=#666666;mainText=" vertex="1" parent="1">
          <mxGeometry x="973" y="336" width="150" height="30" as="geometry" />
        </mxCell>
        <mxCell id="yDf6Gy69k3FiIV9ASkcH-22" value="&lt;font style=&quot;font-size: 12px;&quot;&gt;Password&lt;/font&gt;" style="strokeWidth=1;shadow=0;dashed=0;align=center;html=1;shape=mxgraph.mockup.text.textBox;fontColor=#666666;align=left;fontSize=17;spacingLeft=4;spacingTop=-3;whiteSpace=wrap;strokeColor=#666666;mainText=" vertex="1" parent="1">
          <mxGeometry x="973" y="376" width="150" height="30" as="geometry" />
        </mxCell>
        <mxCell id="yDf6Gy69k3FiIV9ASkcH-23" value="" style="rounded=0;whiteSpace=wrap;html=1;" vertex="1" parent="1">
          <mxGeometry x="1506" y="52" width="226" height="449" as="geometry" />
        </mxCell>
        <mxCell id="yDf6Gy69k3FiIV9ASkcH-24" value="&lt;div&gt;Main Page&lt;/div&gt;" style="text;spacingTop=-5;whiteSpace=wrap;html=1;align=left;fontSize=12;fontFamily=Helvetica;fillColor=none;strokeColor=none;" vertex="1" parent="1">
          <mxGeometry x="1585.87" y="23" width="66.25" height="20" as="geometry" />
        </mxCell>
        <mxCell id="yDf6Gy69k3FiIV9ASkcH-25" value="" style="rounded=0;whiteSpace=wrap;html=1;strokeColor=#FFFFFF;fillColor=#1A1A1A;" vertex="1" parent="1">
          <mxGeometry x="1506" y="52" width="226" height="41" as="geometry" />
        </mxCell>
        <mxCell id="yDf6Gy69k3FiIV9ASkcH-26" value="&lt;font style=&quot;font-size: 12px;&quot;&gt;App Name&lt;/font&gt;&lt;div&gt;&lt;font style=&quot;font-size: 12px;&quot;&gt;Live Location&lt;/font&gt;&lt;/div&gt;" style="strokeWidth=1;shadow=0;dashed=0;align=center;html=1;shape=mxgraph.mockup.text.textBox;align=left;fontSize=17;spacingLeft=4;spacingTop=-3;whiteSpace=wrap;mainText=;fillColor=none;strokeColor=none;fontColor=#FFFFFF;" vertex="1" parent="1">
          <mxGeometry x="1514" y="58" width="79" height="30" as="geometry" />
        </mxCell>
        <mxCell id="yDf6Gy69k3FiIV9ASkcH-27" value="" style="verticalLabelPosition=bottom;shadow=0;dashed=0;align=center;html=1;verticalAlign=top;strokeWidth=1;shape=mxgraph.mockup.containers.userFemale;strokeColor=#666666;strokeColor2=#008cff;perimeterSpacing=0;" vertex="1" parent="1">
          <mxGeometry x="1701" y="62.75" width="21" height="20.5" as="geometry" />
        </mxCell>
        <mxCell id="yDf6Gy69k3FiIV9ASkcH-28" value="&lt;font style=&quot;font-size: 12px;&quot;&gt;Search Bar&lt;/font&gt;" style="strokeWidth=1;shadow=0;dashed=0;align=center;html=1;shape=mxgraph.mockup.text.textBox;fontColor=#666666;align=left;fontSize=17;spacingLeft=4;spacingTop=-3;whiteSpace=wrap;strokeColor=#666666;mainText=" vertex="1" parent="1">
          <mxGeometry x="1521" y="100" width="196" height="22" as="geometry" />
        </mxCell>
        <mxCell id="yDf6Gy69k3FiIV9ASkcH-29" value="" style="verticalLabelPosition=bottom;shadow=0;dashed=0;align=center;html=1;verticalAlign=top;strokeWidth=1;shape=mxgraph.mockup.graphics.simpleIcon;strokeColor=#999999;" vertex="1" parent="1">
          <mxGeometry x="1521" y="134" width="196" height="125" as="geometry" />
        </mxCell>
        <mxCell id="yDf6Gy69k3FiIV9ASkcH-30" value="&lt;font style=&quot;font-size: 12px;&quot;&gt;Map&lt;/font&gt;" style="strokeWidth=1;shadow=0;dashed=0;align=center;html=1;shape=mxgraph.mockup.text.textBox;fontColor=#666666;align=left;fontSize=17;spacingLeft=4;spacingTop=-3;whiteSpace=wrap;strokeColor=#666666;mainText=" vertex="1" parent="1">
          <mxGeometry x="1601" y="185.5" width="36" height="22" as="geometry" />
        </mxCell>
        <mxCell id="yDf6Gy69k3FiIV9ASkcH-31" value="" style="shape=mxgraph.mockup.containers.marginRect;rectMarginTop=10;strokeColor=#666666;strokeWidth=1;dashed=0;rounded=1;arcSize=5;recursiveResize=0;html=1;whiteSpace=wrap;" vertex="1" parent="1">
          <mxGeometry x="1521" y="273" width="195" height="85" as="geometry" />
        </mxCell>
        <mxCell id="yDf6Gy69k3FiIV9ASkcH-32" value="&lt;font style=&quot;font-size: 12px;&quot;&gt;Nearby Stores&lt;/font&gt;" style="strokeWidth=1;shadow=0;dashed=0;align=center;html=1;shape=mxgraph.mockup.text.textBox;fontColor=#666666;align=left;fontSize=17;spacingLeft=4;spacingTop=-3;whiteSpace=wrap;strokeColor=none;mainText=;fillColor=none;" vertex="1" parent="1">
          <mxGeometry x="1516" y="257.5" width="150" height="30" as="geometry" />
        </mxCell>
        <mxCell id="yDf6Gy69k3FiIV9ASkcH-33" value="&lt;font style=&quot;font-size: 12px;&quot;&gt;Store&lt;/font&gt;" style="strokeWidth=1;shadow=0;dashed=0;align=center;html=1;shape=mxgraph.mockup.text.textBox;fontColor=#666666;align=left;fontSize=17;spacingLeft=4;spacingTop=-3;whiteSpace=wrap;strokeColor=#666666;mainText=" vertex="1" parent="1">
          <mxGeometry x="1528" y="289.5" width="150" height="20" as="geometry" />
        </mxCell>
        <mxCell id="yDf6Gy69k3FiIV9ASkcH-34" value="&lt;font style=&quot;font-size: 12px;&quot;&gt;Store&lt;/font&gt;" style="strokeWidth=1;shadow=0;dashed=0;align=center;html=1;shape=mxgraph.mockup.text.textBox;fontColor=#666666;align=left;fontSize=17;spacingLeft=4;spacingTop=-3;whiteSpace=wrap;strokeColor=#666666;mainText=" vertex="1" parent="1">
          <mxGeometry x="1528" y="311.5" width="150" height="20" as="geometry" />
        </mxCell>
        <mxCell id="yDf6Gy69k3FiIV9ASkcH-35" value="&lt;font style=&quot;font-size: 12px;&quot;&gt;Store&lt;/font&gt;" style="strokeWidth=1;shadow=0;dashed=0;align=center;html=1;shape=mxgraph.mockup.text.textBox;fontColor=#666666;align=left;fontSize=17;spacingLeft=4;spacingTop=-3;whiteSpace=wrap;strokeColor=#666666;mainText=" vertex="1" parent="1">
          <mxGeometry x="1528" y="333.5" width="150" height="20" as="geometry" />
        </mxCell>
        <mxCell id="yDf6Gy69k3FiIV9ASkcH-36" value="&lt;font style=&quot;font-size: 12px;&quot;&gt;Active orders&lt;/font&gt;" style="strokeWidth=1;shadow=0;dashed=0;align=center;html=1;shape=mxgraph.mockup.text.textBox;fontColor=#666666;align=left;fontSize=17;spacingLeft=4;spacingTop=-3;whiteSpace=wrap;strokeColor=none;mainText=;fillColor=none;" vertex="1" parent="1">
          <mxGeometry x="1516" y="350.5" width="150" height="30" as="geometry" />
        </mxCell>
        <mxCell id="yDf6Gy69k3FiIV9ASkcH-37" value="" style="shape=mxgraph.mockup.containers.marginRect;rectMarginTop=10;strokeColor=#666666;strokeWidth=1;dashed=0;rounded=1;arcSize=5;recursiveResize=0;html=1;whiteSpace=wrap;" vertex="1" parent="1">
          <mxGeometry x="1521" y="366" width="195" height="85" as="geometry" />
        </mxCell>
        <mxCell id="yDf6Gy69k3FiIV9ASkcH-38" value="&lt;font style=&quot;font-size: 12px;&quot;&gt;Order&lt;/font&gt;" style="strokeWidth=1;shadow=0;dashed=0;align=center;html=1;shape=mxgraph.mockup.text.textBox;fontColor=#666666;align=left;fontSize=17;spacingLeft=4;spacingTop=-3;whiteSpace=wrap;strokeColor=#666666;mainText=" vertex="1" parent="1">
          <mxGeometry x="1528" y="404.5" width="150" height="20" as="geometry" />
        </mxCell>
        <mxCell id="yDf6Gy69k3FiIV9ASkcH-39" value="&lt;font style=&quot;font-size: 12px;&quot;&gt;Order&lt;/font&gt;" style="strokeWidth=1;shadow=0;dashed=0;align=center;html=1;shape=mxgraph.mockup.text.textBox;fontColor=#666666;align=left;fontSize=17;spacingLeft=4;spacingTop=-3;whiteSpace=wrap;strokeColor=#666666;mainText=" vertex="1" parent="1">
          <mxGeometry x="1528" y="382.5" width="150" height="20" as="geometry" />
        </mxCell>
        <mxCell id="yDf6Gy69k3FiIV9ASkcH-40" value="&lt;font style=&quot;font-size: 12px;&quot;&gt;Order&lt;/font&gt;" style="strokeWidth=1;shadow=0;dashed=0;align=center;html=1;shape=mxgraph.mockup.text.textBox;fontColor=#666666;align=left;fontSize=17;spacingLeft=4;spacingTop=-3;whiteSpace=wrap;strokeColor=#666666;mainText=" vertex="1" parent="1">
          <mxGeometry x="1528" y="426.5" width="150" height="20" as="geometry" />
        </mxCell>
        <mxCell id="yDf6Gy69k3FiIV9ASkcH-41" value="" style="verticalLabelPosition=bottom;shadow=0;dashed=0;align=center;html=1;verticalAlign=top;strokeWidth=1;shape=mxgraph.mockup.misc.shoppingCart;strokeColor=#999999;" vertex="1" parent="1">
          <mxGeometry x="1701" y="425" width="23" height="23" as="geometry" />
        </mxCell>
        <mxCell id="yDf6Gy69k3FiIV9ASkcH-42" value="" style="rounded=0;whiteSpace=wrap;html=1;" vertex="1" parent="1">
          <mxGeometry x="37" y="48" width="226" height="449" as="geometry" />
        </mxCell>
        <mxCell id="yDf6Gy69k3FiIV9ASkcH-43" value="&lt;div&gt;Splash Page&lt;/div&gt;" style="text;spacingTop=-5;whiteSpace=wrap;html=1;align=left;fontSize=12;fontFamily=Helvetica;fillColor=none;strokeColor=none;" vertex="1" parent="1">
          <mxGeometry x="112.5" y="16" width="75" height="20" as="geometry" />
        </mxCell>
        <mxCell id="yDf6Gy69k3FiIV9ASkcH-44" value="" style="rounded=0;whiteSpace=wrap;html=1;" vertex="1" parent="1">
          <mxGeometry x="596" y="46" width="226" height="449" as="geometry" />
        </mxCell>
        <mxCell id="yDf6Gy69k3FiIV9ASkcH-45" value="&lt;div&gt;Login/Register&amp;nbsp; Page&lt;/div&gt;" style="text;spacingTop=-5;whiteSpace=wrap;html=1;align=left;fontSize=12;fontFamily=Helvetica;fillColor=none;strokeColor=none;" vertex="1" parent="1">
          <mxGeometry x="647.75" y="14" width="122.5" height="20" as="geometry" />
        </mxCell>
        <mxCell id="yDf6Gy69k3FiIV9ASkcH-46" value="" style="verticalLabelPosition=bottom;shadow=0;dashed=0;align=center;html=1;verticalAlign=top;strokeWidth=1;shape=mxgraph.mockup.graphics.simpleIcon;strokeColor=#999999;" vertex="1" parent="1">
          <mxGeometry x="106.5" y="205" width="87" height="90" as="geometry" />
        </mxCell>
        <mxCell id="yDf6Gy69k3FiIV9ASkcH-47" value="&lt;font style=&quot;font-size: 11px;&quot;&gt;App Logo&lt;/font&gt;" style="strokeWidth=1;shadow=0;dashed=0;align=center;html=1;shape=mxgraph.mockup.text.textBox;fontColor=#666666;align=left;fontSize=17;spacingLeft=4;spacingTop=-3;whiteSpace=wrap;strokeColor=#666666;mainText=" vertex="1" parent="1">
          <mxGeometry x="121" y="242.5" width="58" height="15" as="geometry" />
        </mxCell>
        <mxCell id="yDf6Gy69k3FiIV9ASkcH-48" value="Logo For if someone open the app unintentianaly so they can know that is the food ordering app.and if they want they can go to the app and if they dont want they can go back and exit from the app." style="text;spacingTop=-5;whiteSpace=wrap;html=1;align=left;fontSize=12;fontFamily=Helvetica;fillColor=none;strokeColor=none;" vertex="1" parent="1">
          <mxGeometry x="281" y="94" width="250" height="76" as="geometry" />
        </mxCell>
        <mxCell id="yDf6Gy69k3FiIV9ASkcH-49" value="" style="curved=1;endArrow=classic;html=1;rounded=0;entryX=1;entryY=0.5;entryDx=0;entryDy=0;" edge="1" parent="1" target="yDf6Gy69k3FiIV9ASkcH-42">
          <mxGeometry width="50" height="50" relative="1" as="geometry">
            <mxPoint x="407" y="164" as="sourcePoint" />
            <mxPoint x="453" y="159" as="targetPoint" />
            <Array as="points">
              <mxPoint x="416" y="170" />
              <mxPoint x="403" y="181" />
              <mxPoint x="403" y="159" />
              <mxPoint x="391" y="270" />
            </Array>
          </mxGeometry>
        </mxCell>
        <mxCell id="yDf6Gy69k3FiIV9ASkcH-50" value="" style="verticalLabelPosition=bottom;shadow=0;dashed=0;align=center;html=1;verticalAlign=top;strokeWidth=1;shape=mxgraph.mockup.graphics.simpleIcon;strokeColor=#999999;" vertex="1" parent="1">
          <mxGeometry x="665.5" y="74" width="87" height="90" as="geometry" />
        </mxCell>
        <mxCell id="yDf6Gy69k3FiIV9ASkcH-51" value="&lt;font style=&quot;font-size: 12px;&quot;&gt;User Name&lt;/font&gt;" style="strokeWidth=1;shadow=0;dashed=0;align=center;html=1;shape=mxgraph.mockup.text.textBox;fontColor=#666666;align=left;fontSize=17;spacingLeft=4;spacingTop=-3;whiteSpace=wrap;strokeColor=#666666;mainText=" vertex="1" parent="1">
          <mxGeometry x="631" y="223" width="150" height="30" as="geometry" />
        </mxCell>
        <mxCell id="yDf6Gy69k3FiIV9ASkcH-52" value="&lt;font style=&quot;font-size: 12px;&quot;&gt;Password&lt;/font&gt;" style="strokeWidth=1;shadow=0;dashed=0;align=center;html=1;shape=mxgraph.mockup.text.textBox;fontColor=#666666;align=left;fontSize=17;spacingLeft=4;spacingTop=-3;whiteSpace=wrap;strokeColor=#666666;mainText=" vertex="1" parent="1">
          <mxGeometry x="631" y="264" width="150" height="30" as="geometry" />
        </mxCell>
        <mxCell id="yDf6Gy69k3FiIV9ASkcH-53" value="Login" style="strokeWidth=1;shadow=0;dashed=0;align=center;html=1;shape=mxgraph.mockup.buttons.button;strokeColor=#666666;fontColor=#ffffff;mainText=;buttonStyle=round;fontSize=17;fontStyle=1;fillColor=#FF1616;whiteSpace=wrap;" vertex="1" parent="1">
          <mxGeometry x="662.25" y="310" width="93.5" height="23" as="geometry" />
        </mxCell>
        <mxCell id="yDf6Gy69k3FiIV9ASkcH-54" value="&lt;div&gt;Register Pane&lt;/div&gt;" style="text;spacingTop=-5;whiteSpace=wrap;html=1;align=left;fontSize=12;fontFamily=Helvetica;fillColor=none;strokeColor=none;" vertex="1" parent="1">
          <mxGeometry x="1005.25" y="126" width="85.5" height="20" as="geometry" />
        </mxCell>
        <mxCell id="yDf6Gy69k3FiIV9ASkcH-55" value="" style="rounded=0;whiteSpace=wrap;html=1;" vertex="1" parent="1">
          <mxGeometry x="935" y="158" width="226" height="294" as="geometry" />
        </mxCell>
        <mxCell id="yDf6Gy69k3FiIV9ASkcH-56" value="Login" style="text;strokeColor=#008CFF;align=center;verticalAlign=middle;spacingLeft=10;spacingRight=10;overflow=hidden;points=[[0,0.5],[1,0.5]];portConstraint=eastwest;rotatable=0;whiteSpace=wrap;html=1;fillColor=#008CFF;fontColor=#ffffff;fontSize=17;" vertex="1" parent="1">
          <mxGeometry x="615.5" y="180" width="187" height="25" as="geometry" />
        </mxCell>
        <mxCell id="yDf6Gy69k3FiIV9ASkcH-57" value="Register" style="text;strokeColor=#008CFF;align=center;verticalAlign=middle;spacingLeft=10;spacingRight=10;overflow=hidden;points=[[0,0.5],[1,0.5]];portConstraint=eastwest;rotatable=0;whiteSpace=wrap;html=1;fillColor=#008CFF;fontColor=#ffffff;fontSize=17;" vertex="1" parent="1">
          <mxGeometry x="954.5" y="180" width="187" height="25" as="geometry" />
        </mxCell>
        <mxCell id="yDf6Gy69k3FiIV9ASkcH-58" value="&lt;font style=&quot;font-size: 12px;&quot;&gt;First Name&lt;/font&gt;" style="strokeWidth=1;shadow=0;dashed=0;align=center;html=1;shape=mxgraph.mockup.text.textBox;fontColor=#666666;align=left;fontSize=17;spacingLeft=4;spacingTop=-3;whiteSpace=wrap;strokeColor=#666666;mainText=" vertex="1" parent="1">
          <mxGeometry x="973" y="216.5" width="150" height="30" as="geometry" />
        </mxCell>
        <mxCell id="yDf6Gy69k3FiIV9ASkcH-59" value="&lt;font style=&quot;font-size: 12px;&quot;&gt;Last Name&lt;/font&gt;" style="strokeWidth=1;shadow=0;dashed=0;align=center;html=1;shape=mxgraph.mockup.text.textBox;fontColor=#666666;align=left;fontSize=17;spacingLeft=4;spacingTop=-3;whiteSpace=wrap;strokeColor=#666666;mainText=" vertex="1" parent="1">
          <mxGeometry x="973" y="257.5" width="150" height="30" as="geometry" />
        </mxCell>
        <mxCell id="yDf6Gy69k3FiIV9ASkcH-60" value="Register" style="strokeWidth=1;shadow=0;dashed=0;align=center;html=1;shape=mxgraph.mockup.buttons.button;strokeColor=#666666;fontColor=#ffffff;mainText=;buttonStyle=round;fontSize=17;fontStyle=1;fillColor=#FF1616;whiteSpace=wrap;" vertex="1" parent="1">
          <mxGeometry x="1001.75" y="414" width="92.5" height="25" as="geometry" />
        </mxCell>
        <mxCell id="yDf6Gy69k3FiIV9ASkcH-61" value="&lt;font style=&quot;font-size: 12px;&quot;&gt;E-Mail&lt;/font&gt;" style="strokeWidth=1;shadow=0;dashed=0;align=center;html=1;shape=mxgraph.mockup.text.textBox;fontColor=#666666;align=left;fontSize=17;spacingLeft=4;spacingTop=-3;whiteSpace=wrap;strokeColor=#666666;mainText=" vertex="1" parent="1">
          <mxGeometry x="973" y="296" width="150" height="30" as="geometry" />
        </mxCell>
        <mxCell id="yDf6Gy69k3FiIV9ASkcH-62" value="&lt;font style=&quot;font-size: 12px;&quot;&gt;Username&lt;/font&gt;" style="strokeWidth=1;shadow=0;dashed=0;align=center;html=1;shape=mxgraph.mockup.text.textBox;fontColor=#666666;align=left;fontSize=17;spacingLeft=4;spacingTop=-3;whiteSpace=wrap;strokeColor=#666666;mainText=" vertex="1" parent="1">
          <mxGeometry x="973" y="336" width="150" height="30" as="geometry" />
        </mxCell>
        <mxCell id="yDf6Gy69k3FiIV9ASkcH-63" value="&lt;font style=&quot;font-size: 12px;&quot;&gt;Password&lt;/font&gt;" style="strokeWidth=1;shadow=0;dashed=0;align=center;html=1;shape=mxgraph.mockup.text.textBox;fontColor=#666666;align=left;fontSize=17;spacingLeft=4;spacingTop=-3;whiteSpace=wrap;strokeColor=#666666;mainText=" vertex="1" parent="1">
          <mxGeometry x="973" y="376" width="150" height="30" as="geometry" />
        </mxCell>
        <mxCell id="yDf6Gy69k3FiIV9ASkcH-64" value="" style="rounded=0;whiteSpace=wrap;html=1;" vertex="1" parent="1">
          <mxGeometry x="1506" y="52" width="226" height="449" as="geometry" />
        </mxCell>
        <mxCell id="yDf6Gy69k3FiIV9ASkcH-65" value="&lt;div&gt;Main Page&lt;/div&gt;" style="text;spacingTop=-5;whiteSpace=wrap;html=1;align=left;fontSize=12;fontFamily=Helvetica;fillColor=none;strokeColor=none;" vertex="1" parent="1">
          <mxGeometry x="1585.87" y="23" width="66.25" height="20" as="geometry" />
        </mxCell>
        <mxCell id="yDf6Gy69k3FiIV9ASkcH-66" value="" style="rounded=0;whiteSpace=wrap;html=1;strokeColor=#FFFFFF;fillColor=#1A1A1A;" vertex="1" parent="1">
          <mxGeometry x="1506" y="52" width="226" height="41" as="geometry" />
        </mxCell>
        <mxCell id="yDf6Gy69k3FiIV9ASkcH-67" value="&lt;font style=&quot;font-size: 12px;&quot;&gt;App Name&lt;/font&gt;&lt;div&gt;&lt;font style=&quot;font-size: 12px;&quot;&gt;Live Location&lt;/font&gt;&lt;/div&gt;" style="strokeWidth=1;shadow=0;dashed=0;align=center;html=1;shape=mxgraph.mockup.text.textBox;align=left;fontSize=17;spacingLeft=4;spacingTop=-3;whiteSpace=wrap;mainText=;fillColor=none;strokeColor=none;fontColor=#FFFFFF;" vertex="1" parent="1">
          <mxGeometry x="1514" y="58" width="79" height="30" as="geometry" />
        </mxCell>
        <mxCell id="yDf6Gy69k3FiIV9ASkcH-68" value="" style="verticalLabelPosition=bottom;shadow=0;dashed=0;align=center;html=1;verticalAlign=top;strokeWidth=1;shape=mxgraph.mockup.containers.userFemale;strokeColor=#666666;strokeColor2=#008cff;perimeterSpacing=0;" vertex="1" parent="1">
          <mxGeometry x="1701" y="62.75" width="21" height="20.5" as="geometry" />
        </mxCell>
        <mxCell id="yDf6Gy69k3FiIV9ASkcH-69" value="&lt;font style=&quot;font-size: 12px;&quot;&gt;Search Bar&lt;/font&gt;" style="strokeWidth=1;shadow=0;dashed=0;align=center;html=1;shape=mxgraph.mockup.text.textBox;fontColor=#666666;align=left;fontSize=17;spacingLeft=4;spacingTop=-3;whiteSpace=wrap;strokeColor=#666666;mainText=" vertex="1" parent="1">
          <mxGeometry x="1521" y="100" width="196" height="22" as="geometry" />
        </mxCell>
        <mxCell id="yDf6Gy69k3FiIV9ASkcH-70" value="" style="verticalLabelPosition=bottom;shadow=0;dashed=0;align=center;html=1;verticalAlign=top;strokeWidth=1;shape=mxgraph.mockup.graphics.simpleIcon;strokeColor=#999999;" vertex="1" parent="1">
          <mxGeometry x="1521" y="134" width="196" height="125" as="geometry" />
        </mxCell>
        <mxCell id="yDf6Gy69k3FiIV9ASkcH-71" value="&lt;font style=&quot;font-size: 12px;&quot;&gt;Map&lt;/font&gt;" style="strokeWidth=1;shadow=0;dashed=0;align=center;html=1;shape=mxgraph.mockup.text.textBox;fontColor=#666666;align=left;fontSize=17;spacingLeft=4;spacingTop=-3;whiteSpace=wrap;strokeColor=#666666;mainText=" vertex="1" parent="1">
          <mxGeometry x="1601" y="185.5" width="36" height="22" as="geometry" />
        </mxCell>
        <mxCell id="yDf6Gy69k3FiIV9ASkcH-72" value="" style="shape=mxgraph.mockup.containers.marginRect;rectMarginTop=10;strokeColor=#666666;strokeWidth=1;dashed=0;rounded=1;arcSize=5;recursiveResize=0;html=1;whiteSpace=wrap;" vertex="1" parent="1">
          <mxGeometry x="1521" y="273" width="195" height="85" as="geometry" />
        </mxCell>
        <mxCell id="yDf6Gy69k3FiIV9ASkcH-73" value="&lt;font style=&quot;font-size: 12px;&quot;&gt;Nearby Stores&lt;/font&gt;" style="strokeWidth=1;shadow=0;dashed=0;align=center;html=1;shape=mxgraph.mockup.text.textBox;fontColor=#666666;align=left;fontSize=17;spacingLeft=4;spacingTop=-3;whiteSpace=wrap;strokeColor=none;mainText=;fillColor=none;" vertex="1" parent="1">
          <mxGeometry x="1516" y="257.5" width="150" height="30" as="geometry" />
        </mxCell>
        <mxCell id="yDf6Gy69k3FiIV9ASkcH-74" value="&lt;font style=&quot;font-size: 12px;&quot;&gt;Store&lt;/font&gt;" style="strokeWidth=1;shadow=0;dashed=0;align=center;html=1;shape=mxgraph.mockup.text.textBox;fontColor=#666666;align=left;fontSize=17;spacingLeft=4;spacingTop=-3;whiteSpace=wrap;strokeColor=#666666;mainText=" vertex="1" parent="1">
          <mxGeometry x="1528" y="289.5" width="150" height="20" as="geometry" />
        </mxCell>
        <mxCell id="yDf6Gy69k3FiIV9ASkcH-75" value="&lt;font style=&quot;font-size: 12px;&quot;&gt;Store&lt;/font&gt;" style="strokeWidth=1;shadow=0;dashed=0;align=center;html=1;shape=mxgraph.mockup.text.textBox;fontColor=#666666;align=left;fontSize=17;spacingLeft=4;spacingTop=-3;whiteSpace=wrap;strokeColor=#666666;mainText=" vertex="1" parent="1">
          <mxGeometry x="1528" y="311.5" width="150" height="20" as="geometry" />
        </mxCell>
        <mxCell id="yDf6Gy69k3FiIV9ASkcH-76" value="&lt;font style=&quot;font-size: 12px;&quot;&gt;Store&lt;/font&gt;" style="strokeWidth=1;shadow=0;dashed=0;align=center;html=1;shape=mxgraph.mockup.text.textBox;fontColor=#666666;align=left;fontSize=17;spacingLeft=4;spacingTop=-3;whiteSpace=wrap;strokeColor=#666666;mainText=" vertex="1" parent="1">
          <mxGeometry x="1528" y="333.5" width="150" height="20" as="geometry" />
        </mxCell>
        <mxCell id="yDf6Gy69k3FiIV9ASkcH-77" value="&lt;font style=&quot;font-size: 12px;&quot;&gt;Active orders&lt;/font&gt;" style="strokeWidth=1;shadow=0;dashed=0;align=center;html=1;shape=mxgraph.mockup.text.textBox;fontColor=#666666;align=left;fontSize=17;spacingLeft=4;spacingTop=-3;whiteSpace=wrap;strokeColor=none;mainText=;fillColor=none;" vertex="1" parent="1">
          <mxGeometry x="1516" y="350.5" width="150" height="30" as="geometry" />
        </mxCell>
        <mxCell id="yDf6Gy69k3FiIV9ASkcH-78" value="" style="shape=mxgraph.mockup.containers.marginRect;rectMarginTop=10;strokeColor=#666666;strokeWidth=1;dashed=0;rounded=1;arcSize=5;recursiveResize=0;html=1;whiteSpace=wrap;" vertex="1" parent="1">
          <mxGeometry x="1521" y="366" width="195" height="85" as="geometry" />
        </mxCell>
        <mxCell id="yDf6Gy69k3FiIV9ASkcH-79" value="&lt;font style=&quot;font-size: 12px;&quot;&gt;Order&lt;/font&gt;" style="strokeWidth=1;shadow=0;dashed=0;align=center;html=1;shape=mxgraph.mockup.text.textBox;fontColor=#666666;align=left;fontSize=17;spacingLeft=4;spacingTop=-3;whiteSpace=wrap;strokeColor=#666666;mainText=" vertex="1" parent="1">
          <mxGeometry x="1528" y="404.5" width="150" height="20" as="geometry" />
        </mxCell>
        <mxCell id="yDf6Gy69k3FiIV9ASkcH-80" value="&lt;font style=&quot;font-size: 12px;&quot;&gt;Order&lt;/font&gt;" style="strokeWidth=1;shadow=0;dashed=0;align=center;html=1;shape=mxgraph.mockup.text.textBox;fontColor=#666666;align=left;fontSize=17;spacingLeft=4;spacingTop=-3;whiteSpace=wrap;strokeColor=#666666;mainText=" vertex="1" parent="1">
          <mxGeometry x="1528" y="382.5" width="150" height="20" as="geometry" />
        </mxCell>
        <mxCell id="yDf6Gy69k3FiIV9ASkcH-81" value="&lt;font style=&quot;font-size: 12px;&quot;&gt;Order&lt;/font&gt;" style="strokeWidth=1;shadow=0;dashed=0;align=center;html=1;shape=mxgraph.mockup.text.textBox;fontColor=#666666;align=left;fontSize=17;spacingLeft=4;spacingTop=-3;whiteSpace=wrap;strokeColor=#666666;mainText=" vertex="1" parent="1">
          <mxGeometry x="1528" y="426.5" width="150" height="20" as="geometry" />
        </mxCell>
        <mxCell id="yDf6Gy69k3FiIV9ASkcH-82" value="&lt;font style=&quot;font-size: 12px;&quot;&gt;Past orders&lt;/font&gt;" style="strokeWidth=1;shadow=0;dashed=0;align=center;html=1;shape=mxgraph.mockup.text.textBox;fontColor=#666666;align=left;fontSize=17;spacingLeft=4;spacingTop=-3;whiteSpace=wrap;strokeColor=none;mainText=;fillColor=none;" vertex="1" parent="1">
          <mxGeometry x="1516" y="443.5" width="150" height="30" as="geometry" />
        </mxCell>
        <mxCell id="yDf6Gy69k3FiIV9ASkcH-83" value="" style="shape=mxgraph.mockup.containers.marginRect;rectMarginTop=10;strokeColor=#666666;strokeWidth=1;dashed=0;rounded=1;arcSize=5;recursiveResize=0;html=1;whiteSpace=wrap;" vertex="1" parent="1">
          <mxGeometry x="1521" y="459" width="195" height="40" as="geometry" />
        </mxCell>
        <mxCell id="yDf6Gy69k3FiIV9ASkcH-84" value="&lt;font style=&quot;font-size: 12px;&quot;&gt;Order&lt;/font&gt;" style="strokeWidth=1;shadow=0;dashed=0;align=center;html=1;shape=mxgraph.mockup.text.textBox;fontColor=#666666;align=left;fontSize=17;spacingLeft=4;spacingTop=-3;whiteSpace=wrap;strokeColor=#666666;mainText=" vertex="1" parent="1">
          <mxGeometry x="1528" y="475.5" width="150" height="20" as="geometry" />
        </mxCell>
        <mxCell id="yDf6Gy69k3FiIV9ASkcH-85" value="" style="strokeWidth=1;shadow=0;dashed=0;align=center;html=1;shape=mxgraph.mockup.buttons.button;strokeColor=#666666;fontColor=#ffffff;mainText=;buttonStyle=round;fontSize=17;fontStyle=1;fillColor=#FFFFFF;whiteSpace=wrap;" vertex="1" parent="1">
          <mxGeometry x="1698.17" y="466.5" width="26.67" height="26.5" as="geometry" />
        </mxCell>
        <mxCell id="yDf6Gy69k3FiIV9ASkcH-86" value="" style="verticalLabelPosition=bottom;shadow=0;dashed=0;align=center;html=1;verticalAlign=top;strokeWidth=1;shape=mxgraph.mockup.misc.shoppingCart;strokeColor=#999999;" vertex="1" parent="1">
          <mxGeometry x="1704.6699999999998" y="472.5" width="15.67" height="15" as="geometry" />
        </mxCell>
      </root>
    </mxGraphModel>
  </diagram>
</mxfile>
